{
    "asset" : {
        "generator" : "Khronos glTF Blender I/O v1.6.16",
        "version" : "2.0"
    },
    "scene" : 0,
    "scenes" : [
        {
            "extras" : {
                "glTF2ExportSettings" : {
                    "export_animations" : 0,
                    "export_cameras" : 0,
                    "export_extras" : 1,
                    "export_format" : "GLTF_EMBEDDED",
                    "export_morph" : 0,
                    "export_skins" : 0,
                    "use_selection" : 1
                }
            },
            "name" : "Scene",
            "nodes" : [
                0
            ]
        }
    ],
    "nodes" : [
        {
            "extras" : {},
            "mesh" : 0,
            "name" : "Lotus_Nenuphar"
        }
    ],
    "materials" : [
        {
            "doubleSided" : true,
            "name" : "Lotus_Pink_1",
            "pbrMetallicRoughness" : {
                "baseColorFactor" : [
                    0.7230419516563416,
                    0.11371476203203201,
                    0.5114539265632629,
                    1
                ],
                "metallicFactor" : 0,
                "roughnessFactor" : 0.5
            }
        },
        {
            "doubleSided" : true,
            "name" : "Lotus_Pink_2",
            "pbrMetallicRoughness" : {
                "baseColorFactor" : [
                    0.6266618371009827,
                    0.16278903186321259,
                    0.3946986198425293,
                    1
                ],
                "metallicFactor" : 0,
                "roughnessFactor" : 0.5
            }
        },
        {
            "doubleSided" : true,
            "name" : "Lotus_Pink_3",
            "pbrMetallicRoughness" : {
                "baseColorFactor" : [
                    0.6500046849250793,
                    0.23693370819091797,
                    0.435314416885376,
                    1
                ],
                "metallicFactor" : 0,
                "roughnessFactor" : 0.5
            }
        },
        {
            "doubleSided" : true,
            "emissiveFactor" : [
                0.029099518433213234,
                0.017505129799246788,
                0.02401336468756199
            ],
            "name" : "Lotus_Pink_4",
            "pbrMetallicRoughness" : {
                "baseColorFactor" : [
                    0.7991031408309937,
                    0.4232674837112427,
                    0.6307573914527893,
                    1
                ],
                "metallicFactor" : 0,
                "roughnessFactor" : 0.5
            }
        },
        {
            "doubleSided" : true,
            "emissiveFactor" : [
                0.027209926396608353,
                0.021340908482670784,
                0.024478469043970108
            ],
            "name" : "Lotus_Pink_5",
            "pbrMetallicRoughness" : {
                "baseColorFactor" : [
                    0.7991030812263489,
                    0.5906189680099487,
                    0.7011020183563232,
                    1
                ],
                "metallicFactor" : 0,
                "roughnessFactor" : 0.5
            }
        },
        {
            "doubleSided" : true,
            "emissiveFactor" : [
                0.7991031408309937,
                0.5149174928665161,
                0.05448032170534134
            ],
            "name" : "Lotus_Light",
            "pbrMetallicRoughness" : {
                "baseColorFactor" : [
                    0.7991031408309937,
                    0.5149174928665161,
                    0.05448032170534134,
                    1
                ],
                "metallicFactor" : 0,
                "roughnessFactor" : 0.5
            }
        }
    ],
    "meshes" : [
        {
            "name" : "Circle.032",
            "primitives" : [
                {
                    "attributes" : {
                        "POSITION" : 0,
                        "NORMAL" : 1,
                        "TEXCOORD_0" : 2
                    },
                    "indices" : 3,
                    "material" : 0
                },
                {
                    "attributes" : {
                        "POSITION" : 4,
                        "NORMAL" : 5,
                        "TEXCOORD_0" : 6
                    },
                    "indices" : 7,
                    "material" : 1
                },
                {
                    "attributes" : {
                        "POSITION" : 8,
                        "NORMAL" : 9,
                        "TEXCOORD_0" : 10
                    },
                    "indices" : 11,
                    "material" : 2
                },
                {
                    "attributes" : {
                        "POSITION" : 12,
                        "NORMAL" : 13,
                        "TEXCOORD_0" : 14
                    },
                    "indices" : 15,
                    "material" : 3
                },
                {
                    "attributes" : {
                        "POSITION" : 16,
                        "NORMAL" : 17,
                        "TEXCOORD_0" : 18
                    },
                    "indices" : 19,
                    "material" : 4
                },
                {
                    "attributes" : {
                        "POSITION" : 20,
                        "NORMAL" : 21,
                        "TEXCOORD_0" : 22
                    },
                    "indices" : 23,
                    "material" : 5
                }
            ]
        }
    ],
    "accessors" : [
        {
            "bufferView" : 0,
            "componentType" : 5126,
            "count" : 264,
            "max" : [
                0.48321664333343506,
                1.006951093673706,
                0.46849045157432556
            ],
            "min" : [
                -0.46901553869247437,
                0.11010095477104187,
                -0.48358988761901855
            ],
            "type" : "VEC3"
        },
        {
            "bufferView" : 1,
            "componentType" : 5126,
            "count" : 264,
            "type" : "VEC3"
        },
        {
            "bufferView" : 2,
            "componentType" : 5126,
            "count" : 264,
            "type" : "VEC2"
        },
        {
            "bufferView" : 3,
            "componentType" : 5123,
            "count" : 288,
            "type" : "SCALAR"
        },
        {
            "bufferView" : 4,
            "componentType" : 5126,
            "count" : 304,
            "max" : [
                0.5694868564605713,
                1.1260337829589844,
                0.5630922317504883
            ],
            "min" : [
                -0.5370141267776489,
                0.11010095477104187,
                -0.5640876889228821
            ],
            "type" : "VEC3"
        },
        {
            "bufferView" : 5,
            "componentType" : 5126,
            "count" : 304,
            "type" : "VEC3"
        },
        {
            "bufferView" : 6,
            "componentType" : 5126,
            "count" : 304,
            "type" : "VEC2"
        },
        {
            "bufferView" : 7,
            "componentType" : 5123,
            "count" : 336,
            "type" : "SCALAR"
        },
        {
            "bufferView" : 8,
            "componentType" : 5126,
            "count" : 384,
            "max" : [
                0.8893464803695679,
                0.9847570657730103,
                0.9040217399597168
            ],
            "min" : [
                -0.8822875022888184,
                0.11010095477104187,
                -0.8947839736938477
            ],
            "type" : "VEC3"
        },
        {
            "bufferView" : 9,
            "componentType" : 5126,
            "count" : 384,
            "type" : "VEC3"
        },
        {
            "bufferView" : 10,
            "componentType" : 5126,
            "count" : 384,
            "type" : "VEC2"
        },
        {
            "bufferView" : 11,
            "componentType" : 5123,
            "count" : 432,
            "type" : "SCALAR"
        },
        {
            "bufferView" : 12,
            "componentType" : 5126,
            "count" : 368,
            "max" : [
                1.3618581295013428,
                0.7672121524810791,
                1.4138729572296143
            ],
            "min" : [
                -1.391342043876648,
                0.11010095477104187,
                -1.4129691123962402
            ],
            "type" : "VEC3"
        },
        {
            "bufferView" : 13,
            "componentType" : 5126,
            "count" : 368,
            "type" : "VEC3"
        },
        {
            "bufferView" : 14,
            "componentType" : 5126,
            "count" : 368,
            "type" : "VEC2"
        },
        {
            "bufferView" : 15,
            "componentType" : 5123,
            "count" : 432,
            "type" : "SCALAR"
        },
        {
            "bufferView" : 16,
            "componentType" : 5126,
            "count" : 688,
            "max" : [
                1.7154912948608398,
                0.38963782787323,
                1.7154914140701294
            ],
            "min" : [
                -1.7154912948608398,
                0.003672495484352112,
                -1.7154912948608398
            ],
            "type" : "VEC3"
        },
        {
            "bufferView" : 17,
            "componentType" : 5126,
            "count" : 688,
            "type" : "VEC3"
        },
        {
            "bufferView" : 18,
            "componentType" : 5126,
            "count" : 688,
            "type" : "VEC2"
        },
        {
            "bufferView" : 19,
            "componentType" : 5123,
            "count" : 816,
            "type" : "SCALAR"
        },
        {
            "bufferView" : 20,
            "componentType" : 5126,
            "count" : 192,
            "max" : [
                0.21308079361915588,
                1.0020312070846558,
                0.16184261441230774
            ],
            "min" : [
                -0.202024444937706,
                0.8286038637161255,
                -0.15411844849586487
            ],
            "type" : "VEC3"
        },
        {
            "bufferView" : 21,
            "componentType" : 5126,
            "count" : 192,
            "type" : "VEC3"
        },
        {
            "bufferView" : 22,
            "componentType" : 5126,
            "count" : 192,
            "type" : "VEC2"
        },
        {
            "bufferView" : 23,
            "componentType" : 5123,
            "count" : 288,
            "type" : "SCALAR"
        }
    ],
    "bufferViews" : [
        {
            "buffer" : 0,
            "byteLength" : 3168,
            "byteOffset" : 0
        },
        {
            "buffer" : 0,
            "byteLength" : 3168,
            "byteOffset" : 3168
        },
        {
            "buffer" : 0,
            "byteLength" : 2112,
            "byteOffset" : 6336
        },
        {
            "buffer" : 0,
            "byteLength" : 576,
            "byteOffset" : 8448
        },
        {
            "buffer" : 0,
            "byteLength" : 3648,
            "byteOffset" : 9024
        },
        {
            "buffer" : 0,
            "byteLength" : 3648,
            "byteOffset" : 12672
        },
        {
            "buffer" : 0,
            "byteLength" : 2432,
            "byteOffset" : 16320
        },
        {
            "buffer" : 0,
            "byteLength" : 672,
            "byteOffset" : 18752
        },
        {
            "buffer" : 0,
            "byteLength" : 4608,
            "byteOffset" : 19424
        },
        {
            "buffer" : 0,
            "byteLength" : 4608,
            "byteOffset" : 24032
        },
        {
            "buffer" : 0,
            "byteLength" : 3072,
            "byteOffset" : 28640
        },
        {
            "buffer" : 0,
            "byteLength" : 864,
            "byteOffset" : 31712
        },
        {
            "buffer" : 0,
            "byteLength" : 4416,
            "byteOffset" : 32576
        },
        {
            "buffer" : 0,
            "byteLength" : 4416,
            "byteOffset" : 36992
        },
        {
            "buffer" : 0,
            "byteLength" : 2944,
            "byteOffset" : 41408
        },
        {
            "buffer" : 0,
            "byteLength" : 864,
            "byteOffset" : 44352
        },
        {
            "buffer" : 0,
            "byteLength" : 8256,
            "byteOffset" : 45216
        },
        {
            "buffer" : 0,
            "byteLength" : 8256,
            "byteOffset" : 53472
        },
        {
            "buffer" : 0,
            "byteLength" : 5504,
            "byteOffset" : 61728
        },
        {
            "buffer" : 0,
            "byteLength" : 1632,
            "byteOffset" : 67232
        },
        {
            "buffer" : 0,
            "byteLength" : 2304,
            "byteOffset" : 68864
        },
        {
            "buffer" : 0,
            "byteLength" : 2304,
            "byteOffset" : 71168
        },
        {
            "buffer" : 0,
            "byteLength" : 1536,
            "byteOffset" : 73472
        },
        {
            "buffer" : 0,
            "byteLength" : 576,
            "byteOffset" : 75008
        }
    ],
    "buffers" : [
        {
            "byteLength" : 75584,
            "uri" : "data:application/octet-stream;base64,"
        }
    ]
}
